<?xml version="1.0" encoding="utf-8"?>
<!-- Generator: Adobe Illustrator 25.2.3, SVG Export Plug-In . SVG Version: 6.00 Build 0)  -->
<svg version="1.1" id="Layer_1" xmlns="http://www.w3.org/2000/svg" xmlns:xlink="http://www.w3.org/1999/xlink" x="0px" y="0px"
	 viewBox="0 0 555 90" style="enable-background:new 0 0 555 90;" xml:space="preserve">
<style type="text/css">
	.st0{fill:#002A40;}
</style>
<g>
	<path class="st0" d="M315.5,45.6c-2.6-8.1-5.9-16-7.6-24.4c-0.6-2.9-0.6-5.9-0.5-8.8c0.1-2.3,1.4-3.5,3.6-3.6
		c1.8-0.1,3.6,0.1,5.3,0.6c2.2,0.6,3.7,2.6,3.6,4.9c-0.1,1.7-0.4,3.5-1,5.1c-1.5,4.2-3.2,8.3-4.8,12.5c-0.1,0.4-0.2,0.8-0.4,1.3
		c2.4,0,4.5,0,6.7,0c0.8,0,1.2-0.3,1.3-1.1c0.4-4.9,0.9-9.8,1.3-14.8c0.2-2.7,0.2-5.4-0.6-8.1c-1.7-5.8-6.4-9.2-11.9-8.7
		c-5.6,0.5-11.2,4-12.1,11.2c-0.6,4.2-0.1,8.3,1.1,12.3c2,7.2,4.4,14.4,6.6,21.6c2.3,7.6,4.7,15.2,6.9,22.8c0.9,3,1.3,6.1,1,9.2
		c-0.2,2.6-1.4,3.9-4,4.1c-1.5,0.1-3,0.1-4.4-0.2c-3.2-0.6-5-3.2-4.4-6.4c0.5-2.7,1.3-5.3,2.2-7.9c1.2-3.2,2.6-6.4,4-9.8
		c-1.9,0-3.6,0-5.3,0c-2.5,0-2.5,0-2.9,2.4c-1,6.4-1.5,12.8-1,19.2c0.3,4.2,2.5,7.6,6.2,9.9c2,1.2,4.2,0.9,6.3,0.9
		c5.5,0,10.5-4,11.8-9.3c1.1-4.6,0.9-9.2-0.3-13.6C320.1,59.9,317.8,52.7,315.5,45.6z"/>
	<path class="st0" d="M165.2,83.2c0-2.6,0.4-2.3-2.4-2.3c-3.4,0-6.9,0-10.4,0c-0.1-0.3-0.1-0.5-0.1-0.6c0-11.7,0-23.5,0-35.2
		c0-0.8,0.3-0.9,1-0.9c2.2,0,4.3,0,6.5,0c1.2,0,1-0.7,1-1.4c0-0.7,0.1-1.3-1-1.3c-2.1,0.1-4.2,0-6.2,0c-1,0-1.3-0.3-1.3-1.3
		c0-9.9,0-19.7,0-29.6c0-1,0.4-1.3,1.3-1.3c3,0,6.1,0,9.1,0c1,0,1.3-0.3,1.3-1.3c-0.1-1.8-0.1-3.5,0-5.3c0-1-0.3-1.3-1.3-1.3
		c-5.9,0-11.8,0-17.7,0c-1.6,0-1.6,0-1.6,1.6c0,28,0,55.9,0,83.9c0,0.2,0,0.5,0,0.7c-0.1,0.7,0.3,1,1,1c6.6,0,13.3,0,19.9,0
		c0.8,0,1.1-0.3,1-1.1C165.2,86.1,165.2,84.6,165.2,83.2z"/>
	<path class="st0" d="M351.5,83.2c0-2.6,0.4-2.3-2.4-2.3c-3.4,0-6.9,0-10.4,0c-0.1-0.3-0.1-0.5-0.1-0.6c0-11.7,0-23.5,0-35.2
		c0-0.8,0.3-0.9,1-0.9c2.2,0,4.3,0,6.5,0c1.2,0,1-0.7,1-1.4c0-0.7,0.1-1.3-1-1.3c-2.1,0.1-4.2,0-6.2,0c-1,0-1.3-0.3-1.3-1.3
		c0-9.9,0-19.7,0-29.6c0-1,0.4-1.3,1.3-1.3c3,0,6.1,0,9.1,0c1,0,1.3-0.3,1.3-1.3c-0.1-1.8-0.1-3.5,0-5.3c0-1-0.3-1.3-1.3-1.3
		c-5.9,0-11.8,0-17.7,0c-1.6,0-1.6,0-1.6,1.6c0,28,0,55.9,0,83.9c0,0.2,0,0.5,0,0.7c-0.1,0.7,0.3,1,1,1c6.6,0,13.3,0,19.9,0
		c0.8,0,1.1-0.3,1-1.1C351.5,86.1,351.5,84.6,351.5,83.2z"/>
	<path class="st0" d="M521.9,83.2c0-2.6,0.4-2.3-2.4-2.3c-3.4,0-6.9,0-10.4,0c-0.1-0.3-0.1-0.5-0.1-0.6c0-11.7,0-23.5,0-35.2
		c0-0.8,0.3-0.9,1-0.9c2.2,0,4.3,0,6.5,0c1.2,0,1-0.7,1-1.4c0-0.7,0.1-1.3-1-1.3c-2.1,0.1-4.2,0-6.2,0c-1,0-1.3-0.3-1.3-1.3
		c0-9.9,0-19.7,0-29.6c0-1,0.4-1.3,1.3-1.3c3,0,6.1,0,9.1,0c1,0,1.3-0.3,1.3-1.3c-0.1-1.8-0.1-3.5,0-5.3c0-1-0.3-1.3-1.3-1.3
		c-5.9,0-11.8,0-17.7,0c-1.6,0-1.6,0-1.6,1.6c0,28,0,55.9,0,83.9c0,0.2,0,0.5,0,0.7c-0.1,0.7,0.3,1,1,1c6.6,0,13.3,0,19.9,0
		c0.8,0,1.1-0.3,1-1.1C521.8,86.1,521.9,84.6,521.9,83.2z"/>
	<path class="st0" d="M435.8,3.1c0-0.6,0-1.2,0-1.9c-3.3,0-6.4,0-9.7,0c0,0.8,0,1.5,0,2.2c0,23.9,0,47.9,0,71.8c0,1.5-0.2,3-0.7,4.4
		c-0.6,1.9-2.1,3-4.1,3.1c-1.7,0.1-3.6-1.1-4.2-3c-0.5-1.5-0.7-3.2-0.7-4.9c0-23.8,0-47.6,0-71.5c0-0.7,0-1.4,0-2.2
		c-3.4,0-6.4,0-9.7,0c0,0.6-0.1,1-0.1,1.4c0,24.4,0,48.8,0,73.2c0,1.9,0.4,4.1,1.2,5.8c2.8,5.8,7.8,7.9,14,7.9c6.9,0,14-5.1,14-14
		C435.7,51.3,435.8,27.2,435.8,3.1z"/>
	<path class="st0" d="M264.8,1.2c0,2.1,0,4.1,0,6c0,22.6,0,45.2,0,67.9c0,1.7-0.3,3.4-0.8,5c-0.6,1.7-2.1,2.6-3.9,2.6
		c-1.8,0-3.3-0.9-3.9-2.6c-0.5-1.5-0.9-3.1-0.9-4.6c-0.1-24,0-48.1,0-72.1c0-0.7,0-1.4,0-2.1c-3.4,0-6.4,0-9.7,0c0,0.8,0,1.4,0,2.1
		c0,13.7,0,27.4,0,41.1c0,10.3-0.1,20.6,0.1,30.9c0,2.2,0.4,4.6,1.3,6.6c2.8,6.1,9.6,8.5,16.3,7.2c7.6-1.5,11.4-6.4,11.5-14
		c0-24,0-48.1,0-72.1c0-0.6-0.1-1.2-0.1-1.8C271.1,1.2,268.1,1.2,264.8,1.2z"/>
	<path class="st0" d="M234.6,4.2c-4.1-3.8-9-4.7-14.4-3.7c-6.3,1.3-10.9,6.4-10.9,12.6c-0.1,21.1,0,42.3,0,63.4
		c0,2.9,0.9,5.5,2.8,7.7c3.2,3.8,7.4,5.3,12.3,5.2c8.3-0.1,14-5.8,14-14.1c0-10.2,0-20.4,0-30.6c0-10.5,0-21,0-31.4
		C238.5,9.8,237.3,6.6,234.6,4.2z M228.6,78.4c-0.6,2.6-2.5,4.3-4.7,4.3c-2.2,0-4.2-2-4.6-4.6c-0.2-1.1-0.2-2.3-0.2-3.4
		c0-10,0-20,0-30c0-10,0-20,0-30c0-1.5,0.2-3.1,0.6-4.5c0.6-2,2.3-3.2,4.2-3.2c1.9,0,3.6,1.2,4.2,3.2c0.4,1.2,0.7,2.6,0.7,3.9
		c0,20.6,0,41.2,0,61.8C228.9,76.6,228.8,77.6,228.6,78.4z"/>
	<path class="st0" d="M66.2,1.2c-2.9,29.2-5.8,58.2-8.8,87.4c3.4,0,6.5,0,9.7,0c0.1-2.3,0.3-4.5,0.4-6.7c0.2-3.8,0.4-7.7,0.8-11.5
		l0.6-8.3c0.4-6,0.8-12,1.2-18c1.3,0,2.5,0,3.8,0c0.4,6,0.8,11.9,1.2,17.9l0.5,6.8c0.5,6.7,0.9,13.2,1.3,19.8c1.7,0,3.2,0,4.7,0
		c1.6,0,3.2,0,5,0c-2.9-29.3-5.8-58.4-8.8-87.5C74,1.2,70.2,1.2,66.2,1.2z M70.4,41.4c0.5-6.9,0.9-13.8,1.4-20.7c0.2,0,0.4,0,0.7,0
		c0.5,6.9,0.9,13.8,1.4,20.7C72.6,41.4,71.5,41.4,70.4,41.4z"/>
	<path class="st0" d="M440.1,8c3.7,0,7.2,0,10.9,0c0,27,0,53.8,0,80.6c3.3,0,6.3,0,9.6,0c0-26.9,0-53.7,0-80.7c3.7,0,7.3,0,10.8,0
		c0-2.3,0-4.4,0-6.6c-10.5,0-21,0-31.4,0C440.1,3.6,440.1,5.7,440.1,8z"/>
	<path class="st0" d="M485.4,1.3c-3.3,0-6.4,0-9.5,0c0,29.2,0,58.2,0,87.3c6.6,0,13.1,0,19.7,0c0-2.3,0-4.5,0-6.8
		c-3.4,0-6.6,0-10.2,0C485.4,54.8,485.4,28.1,485.4,1.3z"/>
	<path class="st0" d="M194.9,1.3c-3.3,0-6.4,0-9.5,0c0,29.2,0,58.3,0,87.3c6.6,0,13.2,0,19.7,0c0-2.3,0-4.5,0-6.8
		c-3.4,0-6.6,0-10.2,0C194.9,54.8,194.9,28.1,194.9,1.3z"/>
	<path class="st0" d="M45.7,1.2c-3.3,0-6.4,0-9.6,0c0,29.2,0,58.2,0,87.3c6.6,0,13.2,0,19.8,0c0-2.3,0-4.4,0-6.8
		c-3.4,0-6.7,0-10.1,0C45.7,54.8,45.7,28.1,45.7,1.2z"/>
	<path class="st0" d="M288.2,1.1c-2.3,0-4.5,0-6.7,0c0,29.4,0,58.4,0,87.5c3.2,0,6.3,0,9.7,0c0-0.9,0-1.6,0-2.4
		c0-27.4,0-54.8,0-82.2C291.1,0.6,291.5,1.2,288.2,1.1z"/>
	<path class="st0" d="M91,88.6c3.2,0,6.3,0,9.5,0c0-29.2,0-58.2,0-87.4c-3.2,0-6.3,0-9.5,0C91,30.4,91,59.5,91,88.6z"/>
	<path class="st0" d="M134,75.4c-1.3-6.8-2.7-13.7-4-20.5c-0.2-0.9-0.6-1.1-1.4-0.9c-1.7,0.3-3.5,0.5-5.2,0.7
		c-0.3,0-0.9-0.3-0.9-0.4c0-0.4,0.2-0.8,0.5-1c0.7-0.5,1.5-0.8,2.2-1.2c2.8-1.8,5.5-3.7,7.3-6.6c1.6-2.6,2.2-5.5,2.2-8.5
		c0-6.7,0-13.5,0-20.2c0-1.6-0.1-3.3-0.4-4.9c-0.5-3.3-2-6-4.9-7.9c-2.1-1.4-4.5-2.3-6.9-2.4c-4.4-0.2-8.9-0.2-13.3-0.3
		c-1.5,0-1.5,0-1.5,1.6c0,14,0,27.9,0,41.9c0,14.1,0,28.2,0,42.2c0,1.2,0.3,1.5,1.5,1.5c2-0.1,3.9,0,5.9,0c1.7,0,1.7,0,1.7-1.7
		c0-9.5,0-19.1,0-28.6c0-0.5,0.2-1.2,0.5-1.3c2.8-1.3,5.1-0.3,5.6,2.7c0.9,5,1.6,10,2.4,15c0.7,4.2,1.4,8.4,2,12.6
		c0.2,1.1,0.6,1.4,1.6,1.3c2-0.1,4,0,6,0c1.8,0,1.8,0,1.4-1.8C135.4,82.8,134.7,79.1,134,75.4z M117,53.6c-0.1-0.1-0.2-0.2-0.3-0.3
		c0-0.6,0-1.2,0-1.8c0-13.6,0-27.2,0-40.8c0-1,0.2-1.5,1.3-1.3c0.9,0.1,1.9,0.1,2.8,0.4c2.8,0.6,4.2,2.4,4.6,5.7
		c0.2,1.4,0.3,2.8,0.3,4.2c0,7.8,0,15.6,0,23.3c0,0.8-0.1,1.7-0.2,2.5c-0.3,2.1-1.1,3.9-2.8,5.1C120.9,51.6,118.9,52.5,117,53.6z"/>
	<path class="st0" d="M554.8,86.5c-0.7-3.7-1.5-7.4-2.2-11.1c-1.3-6.8-2.7-13.7-4-20.5c-0.2-0.9-0.6-1.1-1.4-0.9
		c-1.7,0.3-3.5,0.5-5.2,0.7c-0.3,0-0.9-0.3-0.9-0.4c0-0.4,0.2-0.8,0.5-1c0.7-0.5,1.5-0.8,2.2-1.2c2.8-1.8,5.5-3.7,7.3-6.6
		c1.6-2.6,2.2-5.5,2.2-8.5c0-6.7,0-13.5,0-20.2c0-1.6-0.1-3.3-0.4-4.9c-0.5-3.3-2-6-4.9-7.9c-2.1-1.4-4.5-2.3-6.9-2.4
		c-4.4-0.2-8.9-0.2-13.3-0.3c-1.5,0-1.5,0-1.5,1.6c0,14,0,27.9,0,41.9c0,14.1,0,28.2,0,42.2c0,1.2,0.3,1.5,1.5,1.5
		c2-0.1,3.9,0,5.9,0c1.7,0,1.7,0,1.7-1.7c0-9.5,0-19.1,0-28.6c0-0.5,0.2-1.2,0.5-1.3c2.8-1.3,5.1-0.3,5.6,2.7c0.9,5,1.6,10,2.4,15
		c0.7,4.2,1.4,8.4,2,12.6c0.2,1.1,0.6,1.4,1.6,1.3c2-0.1,4,0,6,0C555.2,88.3,555.2,88.3,554.8,86.5z M535.6,53.6
		c-0.1-0.1-0.2-0.2-0.3-0.3c0-0.6,0-1.2,0-1.8c0-13.6,0-27.2,0-40.8c0-1,0.2-1.5,1.3-1.3c0.9,0.1,1.9,0.1,2.8,0.4
		c2.8,0.6,4.2,2.4,4.6,5.7c0.2,1.4,0.3,2.8,0.3,4.2c0,7.8,0,15.6,0,23.3c0,0.8-0.1,1.7-0.2,2.5c-0.3,2.1-1.1,3.9-2.8,5.1
		C539.5,51.6,537.5,52.5,535.6,53.6z"/>
	<path class="st0" d="M388.3,51.9c0.2-0.1,0.3-0.2,0.5-0.3c2.6-1.7,5.1-3.6,6.9-6.2c0.1-0.2,0.2-0.4,0.4-0.6
		c1.4-2.4,1.8-5.1,1.8-7.9c0-6.7,0-13.5,0-20.2c0-1.5-0.1-3-0.3-4.5c0-0.1,0-0.3-0.1-0.4c-0.6-3.3-2-6-4.9-7.9
		c-0.8-0.5-1.5-0.9-2.3-1.3c-1.5-0.7-3-1.1-4.6-1.2c-2.1-0.1-4.2-0.2-6.2-0.2c-1.4,0-2.7,0-4.1-0.1c-1,0-2,0-3,0h-0.1
		c-0.1,0-0.2,0-0.3,0c-1,0-1.2,0.1-1.2,1c0,0.2,0,0.4,0,0.6v1.5c0,0.1,0,0.2,0,0.3c0,7,0,12.2,0,19.2v42c0,7,0,14.1,0,21.1
		c0,0.2,0,0.3,0,0.5c0,0.9,0.2,1,1.1,1h0.4c1,0,2,0,3,0c0.9,0,1.9,0,2.8,0c0.6,0,1,0,1.3-0.1c2.1,0,4.2-0.1,6.2-0.2
		c1.6-0.1,3.1-0.5,4.6-1.2c0.8-0.4,1.6-0.8,2.3-1.3c2.2-1.4,3.7-3.6,4.5-6.1c0.5-1.4,0.4-2.7,0.1-4.1c-1.3-6.8-2.6-13.7-4-20.5
		c-0.2-0.9-0.6-1.1-1.4-0.9c-1,0.2-1.9,0.3-2.9,0.4c-0.8,0.1-1.5,0.2-2.3,0.3c-0.3,0-0.9-0.3-0.9-0.4c0-0.4,0.2-0.8,0.5-1
		C386.8,52.7,387.6,52.3,388.3,51.9z M385.8,59.4c0.6,3.5,1.2,7.1,1.7,10.7c0.6,4,1.5,8.6-3.7,9.8C383,80,382,80,381,80.2
		c-0.9,0.1-1.2-0.2-1.3-0.9c0-7.1,0-14.2,0-21.3c0-0.5,0.2-1.2,0.5-1.3C383,55.4,385.3,56.4,385.8,59.4z M380.1,53.6
		c-0.1-0.1-0.2-0.2-0.3-0.3v-17c0-8.5,0-17,0-25.6c0-0.2,0-0.3,0-0.5c0.1-0.7,0.4-1,1.3-0.9c1,0.1,1.9,0.1,2.8,0.4
		c2.5,0.6,3.9,2,4.5,4.7c0.1,0.3,0.1,0.6,0.2,1c0.2,1.4,0.2,2.8,0.2,4.2c0,5.2,0,10.4,0,15.6c0,0.9,0,1.8,0,2.7v5
		c0,0.6,0,1.2-0.1,1.8c0,0,0,0,0,0c0,0.2,0,0.4-0.1,0.6c-0.3,2.1-1.1,3.9-2.8,5C384,51.6,382,52.5,380.1,53.6z"/>
	<path class="st0" d="M29.2,65.7v-1.5V62v0V51.8V41.6h0h-9.8V62v2.3h0c0,3.8,0,7.6,0,11.4c0,1.2-0.1,2.4-0.4,3.5
		c-0.6,2.1-2.5,3.5-4.4,3.6c-1.9,0-3.8-1.5-4.5-3.7c-0.2-0.8-0.4-1.6-0.4-2.3c0-21.2,0-42.5,0-63.7c0-1.3,0.4-2.6,1-3.7
		c1.7-3.2,5.9-3.2,7.6,0c0.6,1.1,1,2.6,1,3.9c0.1,5.7,0.1,11.4,0.1,17.2v1.1h9.8c0-5.7,0-11.5,0-17.2c0-1.3-0.1-2.5-0.4-3.8
		C27.6,4.5,22,0.2,15.2,0.1C6.8-0.1-0.1,5.3,0,14.5c0.2,15.4,0.1,30.9,0.1,46.4c0,5.4,0,10.9,0.1,16.3c0.1,3.1,1.3,5.7,3.5,8
		c3.7,3.7,8.3,4.7,13.3,4.2c6.6-0.6,11.8-5.7,12.2-12.3C29.3,73.3,29.2,69.5,29.2,65.7z"/>
</g>
</svg>
